# xmcd CD database file
#
# Track frame offsets:
#	150
#	16415
#	33200
#	50451
#	61111
#	76374
#	95680
#	111546
#	129809
#	148899
#	164982
#	181470
#	195121
#	216375
#	232419
#	243991
#	259960
#	282446
#
# Disc length: 4021 seconds
#
# Revision: 1
# Processed by: cddbd v1.5.2PL0 Copyright (c) Steve Scherf et al.
# Submitted via: jetAudio 5
#
DISCID=110fb312
DTITLE=Various Artist - Zinc De Zinc 2
DYEAR=07
DGENRE=
TTITLE0=Bénabar - La P'tite Monnaie
TTITLE1=Polémil Bazar - Culturé, Bien Elevé
TTITLE2=La Varda - Elle Disait...
TTITLE3=R.wan De Java - Lache L'affaire
TTITLE4=Les Petites Bourrettes - Y'a D'la Vie
TTITLE5=Allain Leprest Et Olivia Ruiz - Etes-Vous Là?
TTITLE6=Syrano Et La Rue Ketanou - Planter Des Cailloux
TTITLE7=Map (Ministère Des Affaires Populaires) - Balle Populaire
TTITLE8=Les Barbeaux - Le Coup De La Pomme
TTITLE9=Karpat - Lino
TTITLE10=Les Ongles Noirs - Les Enragés
TTITLE11=Blérots De R.a.v.e.l - Les P'tits Plaisirs
TTITLE12=Les Ogres De Barback - Contes, Vents Et Marées
TTITLE13=Tom Poisson - C'est L'vent
TTITLE14=Gérald Genty - Un Très Mauvais Stewart
TTITLE15=Simeo - Sous Ma Peau
TTITLE16=Alcoolytes - Les Gitans
TTITLE17=Volo - Dans Mon Café Préféré
EXTD=
EXTT0=
EXTT1=
EXTT2=
EXTT3=
EXTT4=
EXTT5=
EXTT6=
EXTT7=
EXTT8=
EXTT9=
EXTT10=
EXTT11=
EXTT12=
EXTT13=
EXTT14=
EXTT15=
EXTT16=
EXTT17=
PLAYORDER=
